/* XPM */
static char * algae_resized_xpm[] = {
"32 32 10 1",
" 	c #C0CBDC",
".	c #4D7869",
"+	c #265C42",
"@	c #73948F",
"#	c #9AAFB6",
"$	c #2C6744",
"%	c #327345",
"&	c #3E8948",
"*	c #387E47",
"=	c #BFCBDB",
"                                ",
"                                ",
"                                ",
"                                ",
"                                ",
"                .+.@            ",
"              #.$%%+@           ",
"              @+%&%++.          ",
"       #@     @+&&&+++          ",
"      #+$.    @+&&&+++   #      ",
"      +*&$.#  @+&&*+++ #.+@     ",
"      +&&%+.  @+%&&$++ @%$+#    ",
"      +&&*++@  +%&&$+@ @*&%@    ",
"      +&&%+$+  .%&&&+# @&&%@    ",
"      +*&&$$$# @%&&$.  .*&%@    ",
"      .$&&&+%+#@%&*+#  +&&%@    ",
"      #+*&&*+%+@%&%+  #+&&%@    ",
"       +&&&&$*$+%&&+  .%&&+=    ",
"       .$&&&*$&%*&&+.++*&*+@    ",
"       #+%&&&$%&&&%+%*+%&&+#    ",
"        +%&&&&%&&*+*&%+&&%+     ",
"        @$&&&&&&&$$&&+%&&$@     ",
"         .%&&$%%$%&%$%&&%.      ",
"         @+*&*%%$+++*&&%.       ",
"         #++*&&&*%%&&*$.        ",
"          #++%%&&&&&%+@         ",
"           #@@@@+++.@           ",
"                                ",
"                                ",
"                                ",
"                                ",
"                                "};
