/* XPM */
static char * exit_resized_xpm[] = {
"32 32 5 1",
" 	c #C0CBDC",
".	c #90BEDF",
"+	c #0095E9",
"@	c #30A3E6",
"#	c #60B0E3",
"                  .+@##.        ",
"                   #@++++#.     ",
"      #@++++++++@#.    .#++.    ",
"    .++@########@+++@.    .+.   ",
"   .+#     .##### .#@+@.   .+.  ",
"  .+.   .@+++++++++@..@+@.  #+  ",
" .+.   @+@#.     ##@+# .@+.  +# ",
" @@   @@. #######.  .+@  @@  #+ ",
" +#  @@ .++++++++++@. @@  +# .+.",
".+. @@ .+#       .#@+. @@ #+  @@",
"#+ .+..+.  .#####   #+ .+..+. #+",
"#+ @@ @@  .++++++@   +# +# +# #+",
"+# +# +# .+.     @@  +# +##+  #+",
"+# +# +# +# .@   .+. +# +##+  #+",
"+# +# +# +# +#   .+.#+  +##+  #+",
"+# +# +##+  +#   @@ @@ #+ #+  @@",
"+# +# +# +# @@##+@.@@  #+ @@  +#",
"+# +# #+ #+  @++##+@  .+. +# .+.",
"+# @@ .+. @@####@+.  #+. .+. #+ ",
"+# .+. @@  @++++@  #++.  @@  @@ ",
"@@  @@  @@      .#++#   #+   +# ",
"#+   +#  @++++++++#    .+.  #+  ",
" +#  .+.  ######.     .+.  .+.  ",
" .+.  .+.            @+.   @@   ",
"  @@   .++@##.     #+@.   @@    ",
"   @@   .#@+++++++++#    @@     ",
"    @+@#.    .#####    .@@      ",
"     #@+++@###       .#+@       ",
"        .#@++++++++++++.        ",
"              #######.          ",
"                                ",
"                                "};
