/* XPM */
static char * Tardigrade_xpm[] = {
"64 64 4 1",
" 	c None",
".	c #C0CBDC",
"+	c #5B2F11",
"@	c #B86F50",
"................................................................",
"................................................................",
"................................................................",
"................................................................",
"................................................................",
"................................................................",
"................................................................",
"................................................................",
"................................................................",
"................................................................",
"................................................................",
".........................+++++++++++++..........................",
".......................+++++++++++++++++........................",
"......................++++@@@++++++++++++.......................",
".....................++++@@@@@@@@@@@@@++++......................",
"....................+++@@@@@@@@@@@@@@@@@+++.....................",
"...................+++@@@@@@@@@@@@@@@@@@@+++....................",
"..................+++@@@+@@@@@@@@@@@+@@@@+++....................",
".................+++@@@+@+@@@@@@@@@+@+@@@+++....................",
".................++@@@@+@+@@@@@@@@@+@+@@@@+++...................",
"................+++@@@@@+@@@@++++@@@+@@@@@@++...................",
"................++@@@@@@@@@@+@@+++@@@@@@@@@++...................",
"................++@@@@@@@@@+@@@@+++@@@@@@@@+....................",
"................++@@@@@@@@@+@@@@@++@@@@@@@++....................",
"................++@@@@@@@@@@+@@@++@@@@@@@@++....................",
"................++@@@@@@@@@@@++++@@@@@@@@@++....................",
"................++@@@@@@@@@@@@@@@@@@@@@@@@++....................",
".................++@@@@@@@@@@@@@@@@@@@@@@+++....................",
".................+++@@@@@@@@@@@@@@@@@@@@+++.....................",
"..................+++@@@@@@@@@@@@@@@@@@+++......................",
"...................++++@@@@@@@@@@@@@@+++++......................",
".....................++++++@@@@@@@@@++++@++.....................",
"......................+@++@+++++++++++@@@@+.....................",
".....................+++@@@@@++++++@@@@@++......................",
"....................++++++@@@@@@@@@@@@++++......................",
"...................+@@@@+++@@@@@@@@@@++@+@+.....................",
"..................+@@@@@@++++++@@@@@++@@@@@+....................",
".................++@@@@@@@@++++++++++@@@@@@@+...................",
"..................+@@@@@@@@@@@+@@@@@@@@@@@@@+...................",
"..................+@@+++@@@@@@@@@@@@@@+@@@@@@+..................",
"...................++..+@@@@@@@@@@@@@@@++@@@@++.................",
"........................+@@@@@@@@@@@@@@+..+++++++...............",
".......................+@+@@@@@@@@@@@@+++..+.+..................",
".....................++@+++++++@@@@+++@@@+.+....................",
"....................+@@@@++++++++++++@@@@@+++...................",
"...................+@@@@@@+++++@@@+++@@@@@++....................",
"...................+@@@@@+@@+@@@@@+++@@@@@+.....................",
"...................+@@@@+@@@@@@@@@++@@@@@@+.....................",
".................+++@+++@@@@@@@@@@@+@+@@@+++....................",
"...................++.+@@@@@@@@@@@@@+++@+++ ....................",
"..................+..++@@@@@@@@@@@@@++++++++....................",
".....................+@@@@@@@@@@@@++............................",
".....................++@@@@++++++@@++++.........................",
"....................+++@@@@@++.+@@@@@++.........................",
"....................+++@@@@+...+@@@@@+..........................",
".....................+++@@+....++@@@++..........................",
"....................++++++......++++ +..........................",
".....................+++.+.......+ +............................",
".........................+.......+..............................",
"................................................................",
"................................................................",
"................................................................",
"................................................................",
"................................................................"};
