/* XPM */
static char * wall_resized_xpm[] = {
"32 32 4 1",
" 	c #C0CBDC",
".	c #6D848D",
"+	c #96A7B5",
"@	c #193C3E",
"                                ",
"                                ",
"                                ",
"                                ",
"   ..........................+  ",
"   @@@@@@@@@@@@@@@@@@@@@@@@@@.  ",
"   @@@@@@@@@@@@@@@@@@@@@@@@@@.  ",
"   @@@@@@@@@@@@@@@@@@@@@@@@@@.  ",
"   @@@@@@@@@@@@@@@@@@@@@@@@@@.  ",
"   @@@@@@@@@@@@@@@@@@@@@@@@@@.  ",
"   @@@@@@@@@@@@@@@@@@@@@@@@@@.  ",
"   @@@@@@@@@@@@@@@@@@@@@@@@@@.  ",
"   @@@@@@@@@@@@@@@@@@@@@@@@@@.  ",
"   @@@@@@@@@@@@@@@@@@@@@@@@@@.  ",
"   @@@@@@@@@@@@@@@@@@@@@@@@@@.  ",
"   @@@@@@@@@@@@@@@@@@@@@@@@@@.  ",
"   @@@@@@@@@@@@@@@@@@@@@@@@@@.  ",
"   @@@@@@@@@@@@@@@@@@@@@@@@@@.  ",
"   @@@@@@@@@@@@@@@@@@@@@@@@@@.  ",
"   @@@@@@@@@@@@@@@@@@@@@@@@@@.  ",
"   @@@@@@@@@@@@@@@@@@@@@@@@@@.  ",
"   @@@@@@@@@@@@@@@@@@@@@@@@@@.  ",
"   @@@@@@@@@@@@@@@@@@@@@@@@@@.  ",
"   @@@@@@@@@@@@@@@@@@@@@@@@@@.  ",
"   @@@@@@@@@@@@@@@@@@@@@@@@@@.  ",
"   @@@@@@@@@@@@@@@@@@@@@@@@@@.  ",
"   @@@@@@@@@@@@@@@@@@@@@@@@@@.  ",
"   @@@@@@@@@@@@@@@@@@@@@@@@@@.  ",
"                                ",
"                                ",
"                                ",
"                                "};
