/* XPM */
static char * exit_open1_xpm[] = {
"32 32 32 1",
" 	c #BE4A2F",
".	c #D87644",
"+	c #EAD4AA",
"@	c #E4A672",
"#	c #B86F50",
"$	c #743F39",
"%	c #3F2832",
"&	c #9E2835",
"*	c #E43B44",
"=	c #F77622",
"-	c #FEAE34",
";	c #FEE761",
">	c #63C74D",
",	c #3E8948",
"'	c #265C42",
")	c #193C3E",
"!	c #124E89",
"~	c #0095E9",
"{	c #2CE8F5",
"]	c #FFFFFF",
"^	c #C0CBDC",
"/	c #8B9BB4",
"(	c #5A6988",
"_	c #3A4466",
":	c #172361",
"<	c #FF0044",
"[	c #181425",
"}	c #2D1C2E",
"|	c #B55088",
"1	c #F6757A",
"2	c #E8B796",
"3	c #C28569",
",^^^^^^^^^^^^^^^^^^^^^^^^^^^^^^,",
"^^^^^^^^^^^^^^^^^^^^^^^^^^^^^^^^",
"^^^^^^^^^^^^^^^^^^^^^^^^^^^^^^^^",
"^^^^^^^^^^^^^^^^^^^^^^^^^^^^^^^^",
"^^^^^^^^^^^^^^^^^^^^^^^^^^^^^^^^",
"^^^^^^^^^^^^^^^^^^^^!^^^^^^^^^^^",
"^^^^^^^^^^^^^^^!!!!^!^^^^^^^^^^^",
"^^^^^^^!!!!^^^^^^^^!^!^^^^^^^^^^",
"^^^^^^!^^^^!^^!!!!!^^^!^^^^^^^^^",
"^^^^^!^^^^^^!!{{{{{!!^^!^^!^^^^^",
"^^^^!^^^^^!!{{{{{{{{{!!^^^^!^^^^",
"^^^!^^^^!!{{{{!!!!!{{{{!^^!^^^^^",
"^^^^^^^!^!{{{!!!!!!!{{{!^!^^^^^^",
"^^^^^^^!^!{{!!!!!!!!!{{!^!^^^^^^",
"^^^^^^!^!{{{!!!!!!!!!{{{!^^^^^^^",
"^^^^^!^^!{{{!!!!!!!!!{{{!^^!^^^^",
"^^^^!^^^!{{{!!!!!!!!!{{{!^^!^^^^",
"^^^^^^^^!{{{!!!!!!!!!{{{!^!^^^^^",
"^^^^^^^!^!{{!!!!!!!!!{{!^!^^^^^^",
"^^^^^^!^^!{{{!!!!!!!{{{!^^^^^^^^",
"^^^^^^!^^!{{{{!!!!!{{{{!^^^^^^^^",
"^^^^^!^^^^!!{{{{{{{{{!!^!^^!^^^^",
"^^^^^^^^^!^^!!{{{{{!!^^^^!^!^^^^",
"^^^^^^^^^^!^^^!!!!!^^!^^^^!^^^^^",
"^^^^^^^^^^^!^^!^^^^!^^!^!^^^^^^^",
"^^^^^^^^^^^^!^^!!^^^!^^!^^^^^^^^",
"^^^^^^^^^^^^^^^^^!^^^!^^^^^^^^^^",
"^^^^^^^^^^^^^^^^^!^^^!^^^^^^^^^^",
"^^^^^^^^^^^^^^^^^^!^^^^^^^^^^^^^",
"^^^^^^^^^^^^^^^^^^^^^^^^^^^^^^^^",
"^^^^^^^^^^^^^^^^^^^^^^^^^^^^^^^^",
",^^^^^^^^^^^^^^^^^^^^^^^^^^^^^^,"};
