/* XPM */
static char * tardigrade32_xpm[] = {
"32 32 326 2",
"  	c None",
". 	c #DCCFD6",
"+ 	c #DBCED4",
"@ 	c #E1D1D3",
"# 	c #EBD9D2",
"$ 	c #F1DDD1",
"% 	c #D4C8D1",
"& 	c #D6C9D2",
"* 	c #D9CCD3",
"= 	c #DECFD2",
"- 	c #E5D3D0",
"; 	c #EAD5CC",
"> 	c #EDD5C7",
", 	c #F0D6C3",
"' 	c #CDC3CD",
") 	c #C7BDC9",
"! 	c #CABFCB",
"~ 	c #DACBD1",
"{ 	c #DAC9CB",
"] 	c #DEC8C5",
"^ 	c #E7CBBE",
"/ 	c #EDD0BC",
"( 	c #F1D5BF",
"_ 	c #F3D8C1",
": 	c #C8C0CC",
"< 	c #C4BBC9",
"[ 	c #BDB4C4",
"} 	c #C1B7C5",
"| 	c #CEC2CD",
"1 	c #D4C6CE",
"2 	c #D4C3C9",
"3 	c #D9C1C1",
"4 	c #E1C0B7",
"5 	c #EAC6B6",
"6 	c #F1D0BC",
"7 	c #F4D4BE",
"8 	c #F4D0BA",
"9 	c #BDB9CA",
"0 	c #BDB7CA",
"a 	c #BAB2C7",
"b 	c #B7AEC3",
"c 	c #B4ABBF",
"d 	c #B9B0C1",
"e 	c #C5BBC8",
"f 	c #CEC2CB",
"g 	c #D4C4CA",
"h 	c #D8BEC1",
"i 	c #DBB3B1",
"j 	c #E4B6AE",
"k 	c #F0C7B9",
"l 	c #F5CDBB",
"m 	c #F3C8B5",
"n 	c #EFC2AF",
"o 	c #AFABBF",
"p 	c #B3AFC4",
"q 	c #B4AFC5",
"r 	c #B3ABC5",
"s 	c #B1A8C2",
"t 	c #AFA6BD",
"u 	c #B2A9BD",
"v 	c #BBB2C1",
"w 	c #C7BAC5",
"x 	c #D2C0C7",
"y 	c #D5B8BE",
"z 	c #D1A2A7",
"A 	c #D9A2A2",
"B 	c #EBB7B0",
"C 	c #F3C0B5",
"D 	c #F1BDB0",
"E 	c #EEBCAD",
"F 	c #EABEAB",
"G 	c #AAA8BE",
"H 	c #A8A6BD",
"I 	c #A7A3BC",
"J 	c #AAA4BF",
"K 	c #B1A9C4",
"L 	c #B2A9C4",
"M 	c #ADA4BD",
"N 	c #ACA3B9",
"O 	c #B0A8BA",
"P 	c #BDAFBD",
"Q 	c #CDB6C1",
"R 	c #CEACB6",
"S 	c #C1909A",
"T 	c #C98B92",
"U 	c #E2A0A3",
"V 	c #EDABAB",
"W 	c #ECACAA",
"X 	c #EDB3AA",
"Y 	c #F1C0AE",
"Z 	c #F4C9B0",
"` 	c #ABA9BF",
" .	c #A7A4BC",
"..	c #9F9CB8",
"+.	c #A29DBA",
"@.	c #AEA8C4",
"#.	c #B2A9C5",
"$.	c #ABA2BD",
"%.	c #A69DB6",
"&.	c #A49CB2",
"*.	c #AEA1B3",
"=.	c #C0A8B8",
"-.	c #C29FAE",
";.	c #B78495",
">.	c #BF7A8B",
",.	c #D78897",
"'.	c #E4929E",
").	c #E798A1",
"!.	c #ECA7A5",
"~.	c #F2BCAB",
"{.	c #F6C7AE",
"].	c #ACA9BE",
"^.	c #A6A4BC",
"/.	c #9A9AB6",
"(.	c #9B9AB9",
"_.	c #AAA6C2",
":.	c #A9A1BC",
"<.	c #A098B3",
"[.	c #978FAB",
"}.	c #9B8FA9",
"|.	c #A995AB",
"1.	c #B191A5",
"2.	c #B48097",
"3.	c #BD758E",
"4.	c #CB738E",
"5.	c #D77790",
"6.	c #E08295",
"7.	c #E8989B",
"8.	c #EFB2A3",
"9.	c #F2BFA6",
"0.	c #A0A0BA",
"a.	c #9496B5",
"b.	c #9598B8",
"c.	c #A4A4C2",
"d.	c #A9A6C2",
"e.	c #A49EBA",
"f.	c #9D95B1",
"g.	c #958BAA",
"h.	c #9285A2",
"i.	c #95829B",
"j.	c #9E7F96",
"k.	c #AB7B92",
"l.	c #B4738E",
"m.	c #BB6988",
"n.	c #C56986",
"o.	c #D2768B",
"p.	c #DD8E92",
"q.	c #E6A99A",
"r.	c #EAB79F",
"s.	c #A0A0BE",
"t.	c #9A9BB8",
"u.	c #8C91B3",
"v.	c #9096B7",
"w.	c #9CA2C0",
"x.	c #A1A4C1",
"y.	c #9E9CB8",
"z.	c #9D96B2",
"A.	c #9F91AE",
"B.	c #9885A1",
"C.	c #887089",
"D.	c #89687E",
"E.	c #997285",
"F.	c #A37387",
"G.	c #A66C84",
"H.	c #AE6C82",
"I.	c #BB7782",
"J.	c #CA8C89",
"K.	c #D9A393",
"L.	c #E1B19B",
"M.	c #989CC0",
"N.	c #9397BB",
"O.	c #8C90B3",
"P.	c #868BAE",
"Q.	c #8188AD",
"R.	c #848DB1",
"S.	c #8D98B9",
"T.	c #969CBB",
"U.	c #9F9CB7",
"V.	c #AA9CB3",
"W.	c #B69BAF",
"X.	c #AE8D9F",
"Y.	c #916E81",
"Z.	c #835D6F",
"`.	c #8C6673",
" +	c #946B77",
".+	c #996B78",
"++	c #A57179",
"@+	c #B47D7B",
"#+	c #C79186",
"$+	c #DAA795",
"%+	c #E4B59F",
"&+	c #7B8BB7",
"*+	c #7B88B2",
"=+	c #7B83AA",
"-+	c #787FA5",
";+	c #727CA2",
">+	c #707DA4",
",+	c #7684AB",
"'+	c #8A8FB1",
")+	c #BEA6B4",
"!+	c #D1A7AB",
"~+	c #CB9A9C",
"{+	c #A97D84",
"]+	c #8E626D",
"^+	c #85565E",
"/+	c #8A575A",
"(+	c #996462",
"_+	c #AB736C",
":+	c #BF8376",
"<+	c #D49A88",
"[+	c #E8B29D",
"}+	c #F2BFA9",
"|+	c #6D7EAD",
"1+	c #707AA5",
"2+	c #6D759E",
"3+	c #646D95",
"4+	c #5F6B93",
"5+	c #62709A",
"6+	c #7E82A5",
"7+	c #A499B1",
"8+	c #C4A5B1",
"9+	c #DBA8A6",
"0+	c #D79E97",
"a+	c #B88483",
"b+	c #9A696C",
"c+	c #885251",
"d+	c #884E47",
"e+	c #995F53",
"f+	c #AC6F60",
"g+	c #BF7F6E",
"h+	c #D39682",
"i+	c #E6AD99",
"j+	c #F0BAA5",
"k+	c #6D77A4",
"l+	c #666D98",
"m+	c #5B5D84",
"n+	c #55577E",
"o+	c #596089",
"p+	c #757498",
"q+	c #9A8CA7",
"r+	c #BA9BAA",
"s+	c #D5A1A0",
"t+	c #D69A91",
"u+	c #BE847D",
"v+	c #A56D68",
"w+	c #915953",
"x+	c #8C5349",
"y+	c #975C51",
"z+	c #A5665A",
"A+	c #B37063",
"B+	c #C48274",
"C+	c #D59788",
"D+	c #DEA292",
"E+	c #6A73A2",
"F+	c #626793",
"G+	c #57517A",
"H+	c #51476E",
"I+	c #544F74",
"J+	c #6A6284",
"K+	c #8A7997",
"L+	c #AE8C9E",
"M+	c #CE9999",
"N+	c #D2958C",
"O+	c #BB8076",
"P+	c #A16961",
"Q+	c #8D564F",
"R+	c #844D46",
"S+	c #8A524A",
"T+	c #985B52",
"U+	c #AA665D",
"V+	c #BA756B",
"W+	c #C8867A",
"X+	c #D08F82",
"Y+	c #60628F",
"Z+	c #594F79",
"`+	c #544268",
" @	c #503D5F",
".@	c #5C4969",
"+@	c #755F81",
"@@	c #9F7A8F",
"#@	c #C99192",
"$@	c #CD9188",
"%@	c #B0786F",
"&@	c #925D56",
"*@	c #794643",
"=@	c #6A3637",
"-@	c #6C3939",
";@	c #864D49",
">@	c #A6645D",
",@	c #B97369",
"'@	c #C57E73",
")@	c #CD8579",
"!@	c #5E5B88",
"~@	c #5A4B75",
"{@	c #553E65",
"]@	c #4F3150",
"^@	c #533555",
"/@	c #664A6E",
"(@	c #946B80",
"_@	c #C1898A",
":@	c #C88B85",
"<@	c #AC746C",
"[@	c #8C5851",
"}@	c #6E3C3C",
"|@	c #54202B",
"1@	c #53202B",
"2@	c #7C4444",
"3@	c #A5635E",
"4@	c #B9716A",
"5@	c #C37970",
"6@	c #56426A",
"7@	c #533A5F",
"8@	c #4E2E4D",
"9@	c #4F2C4B",
"0@	c #5D3C5D",
"a@	c #8C5F71",
"b@	c #B67E82",
"c@	c #C08483",
"d@	c #AF7470",
"e@	c #985F59",
"f@	c #7E4347",
"g@	c #A86061",
"h@	c #B96D6B",
"i@	c #AF777D",
"j@	c #BB7F81",
"k@	c #AA5E63",
"                                                                ",
"                                                                ",
"                                                                ",
"                                                                ",
"                                                                ",
"                                                                ",
"                      . + @ # $                                 ",
"                    % & * = - ; > ,                             ",
"                  ' ) ! % ~ { ] ^ / ( _                         ",
"                : < [ } | 1 2 3 4 5 6 7 8                       ",
"            9 0 a b c d e f g h i j k l m n                     ",
"          o p q r s t u v w x y z A B C D E F                   ",
"        G H I J K L M N O P Q R S T U V W X Y Z                 ",
"        `  ...+.@.#.$.%.&.*.=.-.;.>.,.'.).!.~.{.                ",
"        ].^./.(._.@.:.<.[.}.|.1.2.3.4.5.6.7.8.9.                ",
"        ^.0.a.b.c.d.e.f.g.h.i.j.k.l.m.n.o.p.q.r.                ",
"      s.t.a.u.v.w.x.y.z.A.B.C.D.E.F.G.H.I.J.K.L.                ",
"    M.N.O.P.Q.R.S.T.U.V.W.X.Y.Z.`. +.+++@+#+$+%+                ",
"    &+*+=+-+;+>+,+'+%.)+!+~+{+]+^+/+(+_+:+<+[+}+                ",
"      |+1+2+3+4+5+6+7+8+9+0+a+b+c+d+e+f+g+h+i+j+                ",
"        k+l+m+n+o+p+q+r+s+t+u+v+w+x+y+z+A+B+C+D+                ",
"        E+F+G+H+I+J+K+L+M+N+O+P+Q+R+S+T+U+V+W+X+                ",
"          Y+Z+`+ @.@+@@@#@$@%@&@*@=@-@;@>@,@'@)@                ",
"          !@~@{@]@^@/@(@_@:@<@[@}@|@1@2@3@4@5@                  ",
"            6@7@8@9@0@a@b@c@d@e@      f@g@h@                    ",
"                        i@j@            k@                      ",
"                                                                ",
"                                                                ",
"                                                                ",
"                                                                ",
"                                                                ",
"                                                                "};
