/* XPM */
static char * new_tardigrade_left_xpm[] = {
"32 32 3 1",
" 	c #C0CBDC",
".	c #5B2F11",
"+	c #B86F50",
"                                ",
"            ..........          ",
"         ....++.........        ",
"         ...++++++++++...       ",
"       ..+++++++++++++++...     ",
"      ..+++.++++++++.+++...     ",
"      .+++++.++++++++.+++..     ",
"     .+++++.++++++++.+++++.     ",
"    ..++++++++.....+++++++.     ",
"    ..+++++++.+++...+++++..     ",
"    ..+++++++.+++...+++++..     ",
"     .+++++++++...+++++++..     ",
"      ..++++++++++++++++..      ",
"       ...+++++++++++....       ",
"         ....+++++++......      ",
"         ..++++.....++++.       ",
"       ..++..++++++++.+++.      ",
"     ..+++++....++++..+++..     ",
"      .+++++++++++.++++++...    ",
"     . .. .++++++.++++..+...    ",
"           .++++++++++..+...    ",
"         .......++++..++....    ",
"        .+++.........++++...    ",
"       .++++.+.++++..++++...    ",
"       .+++.+++++++.++++....    ",
"      ..+..++++++++++.+....     ",
"      .  .++++++++++......      ",
"         .+++..+..++..          ",
"        ..++.++..++++.          ",
"       ......  ...+...          ",
"        .       . .             ",
"                                "};
