/* XPM */
static char * tardigrade_big_resized_xpm[] = {
"32 32 11 1",
" 	c #C0CBDC",
".	c #8E7D77",
"+	c #745644",
"@	c #5B2F11",
"#	c #A7A4A9",
"$	c #8A4F31",
"%	c #B86F50",
"&	c #A15F40",
"*	c #723F21",
"=	c #8C6654",
"-	c #5C3012",
"                                ",
"          .+@@@@@@@@@+.#        ",
"         @@@$%$@@@@@@@@@        ",
"       #+@$&%%%%%%%%%&$*@#      ",
"      .@*%%$%%%%%%%%$%%%@@.     ",
"     .@$%%$%$%%%%%%$%$%%@@.     ",
"    #+@%%%&$&%%%%%%&$&%%%*@     ",
"    +@%%%%%%%%&$$$%%%%%%%$+     ",
"    @@%%%%%%%$&%$@*&%%%%%$.     ",
"    @@%%%%%%%@%%%@@$%%%%%@.     ",
"    @@%%%%%%%$&%%$*&%%%%%@.     ",
"    #+$%%%%%%%&$$$%%%%%%$@.     ",
"     #@*&%%%%%%%%%%%%%$*@#      ",
"       .+@$$$%%%%%%%$@@*@#      ",
"        #@$@*$$$$$$$@*$&$.      ",
"       #+@@$&%&$$$$&%&$*@       ",
"       $%%%@@%%%%%%%%@%$%.      ",
"     #@%%%%&$@@@$$$$@&%%%&=     ",
"      @%&$$%%%%&%%%%%&%%%%&.    ",
"       @. @%%%%%%%%%%%@@%%%@.   ",
"          .$&%%%%%%%%&@*%*+@.   ",
"       #=$%*@@@@$$$*@&%%$*+     ",
"       =&%%&*@@@$$*@@%%%%@+     ",
"       $%%%$&%&%%%$@$%%%%.      ",
"     #.$&$$&%%%%%%&*%&%%$+      ",
"     #.*=@$%%%%%%%%&$*%&@+      ",
"      . .$%%%%%%%%&$......      ",
"       #+@%%%$@+@$%&$@          ",
"       #.@%%%$.#@%%%%+          ",
"       #+@@$=   .@$$-.          ",
"        .#@..     ..            ",
"           ##     #             "};
